<?xml version="1.0" encoding="UTF-8"?>
<svg width="300px" height="300px" viewBox="0 0 300 300" version="1.1" xmlns="http://www.w3.org/2000/svg" xmlns:xlink="http://www.w3.org/1999/xlink">
    <!-- Generator: Sketch 48.1 (47250) - http://www.bohemiancoding.com/sketch -->
    <title>icon</title>
    <desc>Created with Sketch.</desc>
    <defs>
        <linearGradient x1="0%" y1="0%" x2="100%" y2="100%" id="linearGradient-1">
            <stop stop-color="#1DDACB" offset="0%"></stop>
            <stop stop-color="#6078EA" offset="100%"></stop>
        </linearGradient>
    </defs>
    <g id="Page-1" stroke="none" stroke-width="1" fill="none" fill-rule="evenodd">
        <g id="icon">
            <circle id="Oval" fill="url(#linearGradient-1)" cx="150" cy="150" r="150"></circle>
            <g id="Group" transform="translate(76.000000, 90.000000)" fill="#FFFFFF">
                <path d="M16.5,0 C25.6125,0 33,7.16363636 33,16 C33,24.8363636 25.6125,32 16.5,32 C7.3875,32 0,24.8363636 0,16 C0,7.16363636 7.3875,0 16.5,0 Z M16.5,26.1818182 C22.2885,26.1818182 27,21.6130909 27,16 C27,10.3869091 22.2885,5.81818182 16.5,5.81818182 C10.7115,5.81818182 6,10.3869091 6,16 C6,21.6130909 10.7115,26.1818182 16.5,26.1818182 Z" id="Combined-Shape"></path>
                <path d="M60.3428571,32 C51.3171429,32 44,24.8363636 44,16 C44,7.16363636 51.3171429,0 60.3428571,0 L131.657143,0 C140.682857,0 148,7.16363636 148,16 C148,24.8363636 140.682857,32 131.657143,32 L60.3428571,32 Z M60.3428571,5.81818182 C54.6094857,5.81818182 49.9428571,10.3869091 49.9428571,16 C49.9428571,21.6130909 54.6094857,26.1818182 60.3428571,26.1818182 L131.657143,26.1818182 C137.390514,26.1818182 142.057143,21.6130909 142.057143,16 C142.057143,10.3869091 137.390514,5.81818182 131.657143,5.81818182 L60.3428571,5.81818182 Z" id="Combined-Shape"></path>
                <path d="M16.5,44 C7.3875,44 0,51.1636364 0,60 C0,68.8363636 7.3875,76 16.5,76 C25.6125,76 33,68.8363636 33,60 C33,51.1636364 25.6125,44 16.5,44 Z" id="Path"></path>
                <path d="M16.5,71 C10.7115,71 6,66.2885 6,60.5 C6,54.7115 10.7115,50 16.5,50 C22.2885,50 27,54.7115 27,60.5 C27,66.2885 22.2885,71 16.5,71 Z" id="Path"></path>
                <path d="M131.657143,44 L60.3428571,44 C51.3171429,44 44,51.1636364 44,60 C44,68.8363636 51.3171429,76 60.3428571,76 L131.657143,76 C140.682857,76 148,68.8363636 148,60 C148,51.1636364 140.682857,44 131.657143,44 Z" id="Path"></path>
                <path d="M131.612903,71 L60.3870968,71 C54.6608387,71 50,66.2885 50,60.5 C50,54.7115 54.6608387,50 60.3870968,50 L131.612903,50 C137.339161,50 142,54.7115 142,60.5 C142,66.2885 137.339161,71 131.612903,71 Z" id="Path"></path>
                <path d="M16.5,89 C25.6125,89 33,96.1636364 33,105 C33,113.836364 25.6125,121 16.5,121 C7.3875,121 0,113.836364 0,105 C0,96.1636364 7.3875,89 16.5,89 Z M16.5,115.181818 C22.2885,115.181818 27,110.613091 27,105 C27,99.3869091 22.2885,94.8181818 16.5,94.8181818 C10.7115,94.8181818 6,99.3869091 6,105 C6,110.613091 10.7115,115.181818 16.5,115.181818 Z" id="Combined-Shape"></path>
                <path d="M131.657143,89 C140.682857,89 148,96.1636364 148,105 C148,113.836364 140.682857,121 131.657143,121 L60.3428571,121 C51.3171429,121 44,113.836364 44,105 C44,96.1636364 51.3171429,89 60.3428571,89 L131.657143,89 Z M131.657143,115.181818 C137.390514,115.181818 142.057143,110.613091 142.057143,105 C142.057143,99.3869091 137.390514,94.8181818 131.657143,94.8181818 L60.3428571,94.8181818 C54.6094857,94.8181818 49.9428571,99.3869091 49.9428571,105 C49.9428571,110.613091 54.6094857,115.181818 60.3428571,115.181818 L131.657143,115.181818 Z" id="Combined-Shape"></path>
            </g>
        </g>
    </g>
</svg>